<?xml version="1.0" encoding="utf-8"?>
<!-- Generator: Adobe Illustrator 16.0.0, SVG Export Plug-In . SVG Version: 6.00 Build 0)  -->
<!DOCTYPE svg PUBLIC "-//W3C//DTD SVG 1.1 Tiny//EN" "http://www.w3.org/Graphics/SVG/1.1/DTD/svg11-tiny.dtd">
<svg version="1.1" baseProfile="tiny" id="Layer_2" xmlns="http://www.w3.org/2000/svg" xmlns:xlink="http://www.w3.org/1999/xlink"
	 x="0px" y="0px" width="20px" height="20px" viewBox="0 0 20 20" xml:space="preserve">
<g>
	<path fill="#BBBBBB" d="M16.375,1.587V0h-2.346v1.587H5.98V0.021H3.634v1.565H0V20h20V1.587H16.375z M15.229,2.37 M15.592,3.133
		h-0.782v-2.35h0.782V3.133z M4.416,0.804h0.782v2.35H4.416V0.804z M3.634,2.37v1.566H5.98V2.37h8.048v1.546h2.346V2.37h2.843v3.179
		H0.782V2.37H3.634z M0.782,19.217V6.416h18.436v12.801H0.782z"/>
	<path fill="#BBBBBB" d="M2.365,17.65h15.211V8.41H2.365V17.65z M16.793,13.974h-2.85v-1.966h2.85V13.974z M13.231,13.974h-2.905
		v-1.966h2.905V13.974z M10.326,14.906h2.905v1.961h-2.905V14.906z M9.614,16.867H6.748v-1.961h2.866V16.867z M10.326,11.076V9.193
		h2.905v1.883H10.326z M9.614,11.076H6.748V9.193h2.866V11.076z M9.614,12.008v1.966H6.748v-1.966H9.614z M6.036,13.974h-2.89
		v-1.966h2.89V13.974z M3.146,14.906h2.89v1.961h-2.89V14.906z M13.943,16.867v-1.961h2.85v1.961H13.943z M16.793,11.076h-2.85
		V9.193h2.85V11.076z M6.036,9.193v1.883h-2.89V9.193H6.036z"/>
</g>
</svg>
