<?xml version="1.0" encoding="utf-8"?>
<!-- Generator: Adobe Illustrator 16.0.0, SVG Export Plug-In . SVG Version: 6.00 Build 0)  -->
<!DOCTYPE svg PUBLIC "-//W3C//DTD SVG 1.1 Tiny//EN" "http://www.w3.org/Graphics/SVG/1.1/DTD/svg11-tiny.dtd">
<svg version="1.1" baseProfile="tiny" id="Layer_1" xmlns="http://www.w3.org/2000/svg" xmlns:xlink="http://www.w3.org/1999/xlink"
	 x="0px" y="0px" width="200px" height="50px" viewBox="0 0 200 50" xml:space="preserve">
<g id="Service-Mark" display="none">
	<path display="inline" d="M6.803,57.365c-0.17,0.079-0.375,0.141-0.563,0.141c-0.816,0-1.527-0.677-1.527-1.567
		c0-0.89,0.711-1.566,1.527-1.566c0.188,0,0.393,0.062,0.563,0.14l0.04,0.332c-0.122-0.097-0.367-0.201-0.624-0.201
		c-0.689,0-1.209,0.58-1.209,1.296s0.52,1.296,1.209,1.296c0.279,0,0.502-0.104,0.624-0.2L6.803,57.365z"/>
	<path display="inline" d="M8.831,55.192v1.453c0,0.393,0.157,0.615,0.532,0.615c0.411,0,0.672-0.148,0.672-1.029v-0.986
		l0.253-0.053v2.243l-0.253,0.035v-0.362h-0.009c-0.087,0.196-0.349,0.38-0.685,0.38c-0.554,0-0.764-0.314-0.764-0.812v-1.431
		L8.831,55.192z"/>
	<path display="inline" d="M12.105,56.995c0.166,0.157,0.314,0.239,0.55,0.239c0.258,0,0.472-0.135,0.472-0.405
		c0-0.55-1.157-0.231-1.157-0.999c0-0.402,0.349-0.638,0.725-0.638c0.266,0,0.445,0.109,0.654,0.258l-0.144,0.2
		c-0.152-0.113-0.323-0.205-0.523-0.205c-0.249,0-0.458,0.122-0.458,0.371c0,0.55,1.157,0.188,1.157,0.999
		c0,0.459-0.354,0.673-0.781,0.673c-0.271,0-0.515-0.131-0.685-0.332L12.105,56.995z"/>
	<path display="inline" d="M15.165,54.708l0.253-0.14v0.677h0.593v0.253h-0.593v1.353c0,0.267,0.113,0.367,0.393,0.367
		c0.07,0,0.135,0,0.205-0.009v0.235c-0.07,0.013-0.148,0.026-0.227,0.026c-0.402,0-0.625-0.231-0.625-0.624v-1.349h-0.292
		l0.061-0.253h0.231V54.708z"/>
	<path display="inline" d="M19.712,56.34c0,0.59-0.476,1.148-1.122,1.148c-0.646,0-1.122-0.559-1.122-1.148
		c0-0.589,0.476-1.147,1.122-1.147C19.236,55.192,19.712,55.751,19.712,56.34z M17.722,56.34c0,0.467,0.375,0.895,0.869,0.895
		s0.868-0.428,0.868-0.895s-0.375-0.895-0.868-0.895S17.722,55.873,17.722,56.34z"/>
	<path display="inline" d="M21.395,57.471v-2.226l0.253-0.053v0.375h0.009c0.101-0.218,0.38-0.375,0.585-0.375
		c0.349,0,0.48,0.118,0.642,0.362c0.148-0.223,0.384-0.362,0.624-0.362c0.401,0,0.733,0.192,0.733,0.646v1.598l-0.253,0.035v-1.58
		c0-0.279-0.192-0.472-0.462-0.472c-0.393,0-0.581,0.263-0.581,0.659v1.357l-0.253,0.035v-1.58c0-0.279-0.192-0.472-0.462-0.472
		c-0.393,0-0.581,0.263-0.581,0.659v1.357L21.395,57.471z"/>
	<path display="inline" d="M29.34,57.436l-0.271,0.035v-2.758h-0.829l0.061-0.271h1.829v0.271h-0.79V57.436z"/>
	<path display="inline" d="M31.628,55.323c0.201-0.083,0.419-0.131,0.637-0.131c0.341,0,0.686,0.179,0.686,0.555v1.688l-0.253,0.053
		v-0.275h-0.009c-0.087,0.161-0.279,0.275-0.537,0.275c-0.45,0-0.833-0.288-0.833-0.764c0-0.484,0.318-0.829,0.803-0.829
		c0.218,0,0.428,0.122,0.576,0.253v-0.367c0-0.183-0.223-0.336-0.515-0.336c-0.209,0-0.445,0.109-0.637,0.175L31.628,55.323z
		 M32.169,57.234c0.31,0,0.528-0.23,0.528-0.541c0-0.322-0.223-0.545-0.537-0.545c-0.336,0-0.589,0.227-0.589,0.576
		C31.571,57.047,31.877,57.234,32.169,57.234z"/>
	<path display="inline" d="M35.164,54.503l-0.201,0.227l-0.201-0.227l0.201-0.227L35.164,54.503z M34.859,57.488v-2.243l0.253-0.053
		v2.243L34.859,57.488z"/>
	<path display="inline" d="M37.394,57.436l-0.253,0.053v-3.16l0.253-0.052V57.436z"/>
	<path display="inline" d="M41.399,56.34c0,0.59-0.476,1.148-1.122,1.148c-0.646,0-1.122-0.559-1.122-1.148
		c0-0.589,0.476-1.147,1.122-1.147C40.923,55.192,41.399,55.751,41.399,56.34z M39.409,56.34c0,0.467,0.375,0.895,0.869,0.895
		s0.868-0.428,0.868-0.895s-0.375-0.895-0.868-0.895S39.409,55.873,39.409,56.34z"/>
	<path display="inline" d="M43.291,55.682H43.3c0.157-0.376,0.406-0.489,0.812-0.489l-0.109,0.258
		c-0.026-0.005-0.065-0.005-0.101-0.005c-0.275,0-0.611,0.341-0.611,0.891v1.1l-0.253,0.053v-2.243l0.253-0.053V55.682z"/>
	<path display="inline" d="M45.774,56.725c0.087,0.2,0.371,0.51,0.777,0.51c0.318,0,0.593-0.165,0.829-0.361v0.305
		c-0.192,0.192-0.542,0.311-0.812,0.311c-0.676,0-1.134-0.511-1.134-1.174c0-0.664,0.489-1.122,1.143-1.122
		c0.401,0,0.733,0.258,0.864,0.511L45.774,56.725z M47.044,55.638c-0.1-0.109-0.266-0.192-0.467-0.192
		c-0.515,0-0.89,0.38-0.89,0.873c0,0.057,0.004,0.122,0.018,0.179L47.044,55.638z"/>
	<path display="inline" d="M50.986,54.328l0.253-0.052v3.159l-0.253,0.053v-0.419h-0.009c-0.166,0.218-0.502,0.419-0.859,0.419
		c-0.637,0-1.144-0.468-1.144-1.157c0-0.642,0.502-1.139,1.135-1.139c0.358,0,0.654,0.188,0.868,0.432h0.009V54.328z M50.096,55.445
		c-0.52,0-0.869,0.45-0.869,0.886c0,0.511,0.349,0.903,0.877,0.903c0.489,0,0.881-0.414,0.881-0.89
		C50.986,55.777,50.576,55.445,50.096,55.445z"/>
	<path display="inline" d="M56.273,54.441c0.511,0,0.847,0.24,0.847,0.786c0,0.318-0.14,0.532-0.393,0.659
		c0.328,0.161,0.48,0.375,0.48,0.737c0,0.52-0.305,0.812-0.942,0.812h-0.75v-2.994H56.273z M55.785,55.781h0.41
		c0.437,0,0.655-0.209,0.655-0.55c0-0.336-0.24-0.519-0.542-0.519h-0.523V55.781z M55.785,57.165h0.458
		c0.537,0,0.668-0.253,0.668-0.541c0-0.332-0.205-0.572-0.581-0.572h-0.545V57.165z"/>
	<path display="inline" d="M59.199,55.682h0.009c0.157-0.376,0.406-0.489,0.812-0.489l-0.109,0.258
		c-0.026-0.005-0.065-0.005-0.101-0.005c-0.275,0-0.611,0.341-0.611,0.891v1.1l-0.253,0.053v-2.243l0.253-0.053V55.682z"/>
	<path display="inline" d="M61.621,55.323c0.201-0.083,0.419-0.131,0.637-0.131c0.341,0,0.686,0.179,0.686,0.555v1.688l-0.253,0.053
		v-0.275h-0.009c-0.087,0.161-0.279,0.275-0.537,0.275c-0.449,0-0.833-0.288-0.833-0.764c0-0.484,0.318-0.829,0.803-0.829
		c0.218,0,0.427,0.122,0.576,0.253v-0.367c0-0.183-0.223-0.336-0.515-0.336c-0.209,0-0.445,0.109-0.637,0.175L61.621,55.323z
		 M62.162,57.234c0.31,0,0.528-0.23,0.528-0.541c0-0.322-0.223-0.545-0.537-0.545c-0.336,0-0.589,0.227-0.589,0.576
		C61.564,57.047,61.87,57.234,62.162,57.234z"/>
	<path display="inline" d="M64.729,57.471v-2.226l0.253-0.053v0.362h0.009c0.118-0.196,0.367-0.362,0.633-0.362
		c0.423,0,0.816,0.166,0.816,0.772v1.471l-0.253,0.035v-1.562c0-0.318-0.205-0.489-0.554-0.489c-0.24,0-0.65,0.175-0.65,0.599v1.418
		L64.729,57.471z"/>
	<path display="inline" d="M70.147,54.328l0.253-0.052v3.159l-0.253,0.053v-0.419h-0.009c-0.166,0.218-0.502,0.419-0.859,0.419
		c-0.637,0-1.144-0.468-1.144-1.157c0-0.642,0.502-1.139,1.135-1.139c0.358,0,0.654,0.188,0.868,0.432h0.009V54.328z M69.257,55.445
		c-0.52,0-0.869,0.45-0.869,0.886c0,0.511,0.349,0.903,0.877,0.903c0.489,0,0.881-0.414,0.881-0.89
		C70.147,55.777,69.737,55.445,69.257,55.445z"/>
	<path display="inline" d="M72.637,54.503l-0.201,0.227l-0.201-0.227l0.201-0.227L72.637,54.503z M72.332,57.488v-2.243l0.253-0.053
		v2.243L72.332,57.488z"/>
	<path display="inline" d="M74.491,57.471v-2.226l0.253-0.053v0.362h0.009c0.118-0.196,0.367-0.362,0.633-0.362
		c0.423,0,0.816,0.166,0.816,0.772v1.471l-0.253,0.035v-1.562c0-0.318-0.205-0.489-0.554-0.489c-0.24,0-0.65,0.175-0.65,0.599v1.418
		L74.491,57.471z"/>
	<path display="inline" d="M77.953,57.562c0.205,0.235,0.45,0.423,0.799,0.423c0.354,0,0.729-0.223,0.729-0.55
		c0-0.375-0.358-0.633-0.707-0.633c-0.209,0-0.375,0.053-0.571,0.127l0.091-0.288c-0.227-0.101-0.423-0.367-0.423-0.62
		c0-0.523,0.419-0.829,0.912-0.829c0.087,0,0.179,0.009,0.266,0.009c0.245,0,0.485-0.035,0.72-0.083l-0.074,0.258
		c-0.07,0.021-0.118,0.03-0.192,0.03c-0.04,0-0.079-0.004-0.118-0.013l-0.009,0.009c0.188,0.152,0.332,0.345,0.332,0.602
		c0,0.302-0.201,0.563-0.476,0.672c0.301,0.14,0.502,0.38,0.502,0.725c0,0.528-0.493,0.838-1.004,0.838
		c-0.406,0-0.75-0.24-0.969-0.532L77.953,57.562z M78.124,56.009c0,0.357,0.327,0.559,0.659,0.559c0.323,0,0.672-0.201,0.672-0.559
		c0-0.367-0.34-0.581-0.668-0.581C78.459,55.428,78.124,55.642,78.124,56.009z"/>
	<path display="inline" d="M84.012,56.815c0.183,0.284,0.401,0.419,0.742,0.419c0.367,0,0.637-0.214,0.637-0.593
		c0-0.838-1.536-0.38-1.536-1.423c0-0.546,0.428-0.847,0.938-0.847c0.296,0,0.593,0.14,0.79,0.357l-0.166,0.201
		c-0.188-0.166-0.362-0.288-0.624-0.288c-0.349,0-0.642,0.179-0.642,0.559c0,0.746,1.536,0.354,1.536,1.414
		c0,0.545-0.41,0.891-0.938,0.891c-0.406,0-0.737-0.166-0.947-0.524L84.012,56.815z"/>
	<path display="inline" d="M89.486,56.34c0,0.59-0.476,1.148-1.122,1.148c-0.646,0-1.122-0.559-1.122-1.148
		c0-0.589,0.476-1.147,1.122-1.147C89.01,55.192,89.486,55.751,89.486,56.34z M87.496,56.34c0,0.467,0.375,0.895,0.869,0.895
		s0.868-0.428,0.868-0.895s-0.375-0.895-0.868-0.895S87.496,55.873,87.496,56.34z"/>
	<path display="inline" d="M91.504,57.436l-0.253,0.053v-3.16l0.253-0.052V57.436z"/>
	<path display="inline" d="M93.664,55.192v1.453c0,0.393,0.157,0.615,0.532,0.615c0.41,0,0.672-0.148,0.672-1.029v-0.986
		l0.253-0.053v2.243l-0.253,0.035v-0.362H94.86c-0.087,0.196-0.349,0.38-0.685,0.38c-0.554,0-0.764-0.314-0.764-0.812v-1.431
		L93.664,55.192z"/>
	<path display="inline" d="M96.986,54.708l0.253-0.14v0.677h0.593v0.253H97.24v1.353c0,0.267,0.113,0.367,0.393,0.367
		c0.07,0,0.135,0,0.205-0.009v0.235c-0.07,0.013-0.148,0.026-0.227,0.026c-0.402,0-0.625-0.231-0.625-0.624v-1.349h-0.292
		l0.061-0.253h0.231V54.708z"/>
	<path display="inline" d="M99.862,54.503l-0.201,0.227l-0.201-0.227l0.201-0.227L99.862,54.503z M99.557,57.488v-2.243l0.253-0.053
		v2.243L99.557,57.488z"/>
	<path display="inline" d="M103.815,56.34c0,0.59-0.476,1.148-1.121,1.148c-0.646,0-1.122-0.559-1.122-1.148
		c0-0.589,0.476-1.147,1.122-1.147C103.34,55.192,103.815,55.751,103.815,56.34z M101.826,56.34c0,0.467,0.375,0.895,0.868,0.895
		s0.868-0.428,0.868-0.895s-0.375-0.895-0.868-0.895S101.826,55.873,101.826,56.34z"/>
	<path display="inline" d="M105.459,57.471v-2.226l0.254-0.053v0.362h0.008c0.118-0.196,0.367-0.362,0.633-0.362
		c0.424,0,0.816,0.166,0.816,0.772v1.471l-0.253,0.035v-1.562c0-0.318-0.205-0.489-0.555-0.489c-0.239,0-0.649,0.175-0.649,0.599
		v1.418L105.459,57.471z"/>
	<path display="inline" d="M108.987,56.995c0.165,0.157,0.313,0.239,0.55,0.239c0.257,0,0.471-0.135,0.471-0.405
		c0-0.55-1.156-0.231-1.156-0.999c0-0.402,0.35-0.638,0.725-0.638c0.266,0,0.445,0.109,0.654,0.258l-0.144,0.2
		c-0.153-0.113-0.323-0.205-0.524-0.205c-0.248,0-0.458,0.122-0.458,0.371c0,0.55,1.156,0.188,1.156,0.999
		c0,0.459-0.353,0.673-0.78,0.673c-0.271,0-0.516-0.131-0.686-0.332L108.987,56.995z"/>
	<path display="inline" d="M114.534,55.245v-0.228c0-0.642,0.393-0.741,0.842-0.741l0.065,0.253
		c-0.594,0.004-0.654,0.109-0.654,0.541v0.175h0.624v0.253h-0.624v1.938l-0.253,0.053v-1.99h-0.297l0.061-0.253H114.534z"/>
	<path display="inline" d="M118.998,56.34c0,0.59-0.476,1.148-1.122,1.148c-0.646,0-1.121-0.559-1.121-1.148
		c0-0.589,0.476-1.147,1.121-1.147C118.522,55.192,118.998,55.751,118.998,56.34z M117.008,56.34c0,0.467,0.375,0.895,0.868,0.895
		s0.869-0.428,0.869-0.895s-0.376-0.895-0.869-0.895S117.008,55.873,117.008,56.34z"/>
	<path display="inline" d="M120.89,55.682h0.009c0.157-0.376,0.406-0.489,0.812-0.489l-0.109,0.258
		c-0.025-0.005-0.065-0.005-0.1-0.005c-0.275,0-0.611,0.341-0.611,0.891v1.1l-0.253,0.053v-2.243l0.253-0.053V55.682z"/>
	<path display="inline" d="M128.043,57.1c-0.341,0.262-0.712,0.406-1.087,0.406c-0.825,0-1.506-0.664-1.506-1.589
		c0-0.803,0.603-1.545,1.566-1.545c0.323,0,0.742,0.166,0.974,0.393l-0.166,0.21c-0.223-0.166-0.52-0.332-0.803-0.332
		c-0.742,0-1.274,0.585-1.274,1.274c0,0.72,0.559,1.317,1.235,1.317c0.301,0,0.554-0.113,0.79-0.292v-0.859h-0.961l0.088-0.271
		h1.144V57.1z"/>
	<path display="inline" d="M129.86,57.471v-3.029h0.603c0.497,0,0.872,0.354,0.872,0.878c0,0.449-0.266,0.776-0.711,0.855
		l0.916,1.151l-0.274,0.145l-1.117-1.462h-0.018v1.427L129.86,57.471z M130.131,55.956h0.375c0.358,0,0.532-0.267,0.532-0.637
		c0-0.293-0.209-0.606-0.527-0.606h-0.38V55.956z"/>
	<path display="inline" d="M133.642,56.257l-0.607,1.249l-0.288-0.07l1.523-3.063h0.009l1.523,3.063l-0.263,0.062l-0.615-1.24
		H133.642z M134.274,54.987l-0.502,0.999h0.999L134.274,54.987z"/>
	<path display="inline" d="M137.599,57.436l-0.271,0.035v-3.029h0.563c0.606,0,0.999,0.354,0.999,0.995s-0.393,0.995-1.086,0.995
		h-0.205V57.436z M137.599,56.161h0.248c0.484,0,0.746-0.279,0.746-0.725c0-0.444-0.262-0.724-0.658-0.724h-0.336V56.161z"/>
	<path display="inline" d="M140.619,57.471v-3.029l0.271-0.069v1.409h1.719v-1.34l0.271-0.069v3.063l-0.271,0.035v-1.419h-1.719
		v1.384L140.619,57.471z"/>
	<path display="inline" d="M144.873,54.441l0.271-0.069v3.063l-0.271,0.035V54.441z"/>
	<path display="inline" d="M149.009,57.365c-0.171,0.079-0.376,0.141-0.563,0.141c-0.815,0-1.527-0.677-1.527-1.567
		c0-0.89,0.712-1.566,1.527-1.566c0.188,0,0.393,0.062,0.563,0.14l0.039,0.332c-0.122-0.097-0.366-0.201-0.624-0.201
		c-0.689,0-1.209,0.58-1.209,1.296s0.52,1.296,1.209,1.296c0.279,0,0.502-0.104,0.624-0.2L149.009,57.365z"/>
	<path display="inline" d="M150.904,56.815c0.184,0.284,0.402,0.419,0.742,0.419c0.367,0,0.638-0.214,0.638-0.593
		c0-0.838-1.536-0.38-1.536-1.423c0-0.546,0.428-0.847,0.938-0.847c0.297,0,0.594,0.14,0.79,0.357l-0.166,0.201
		c-0.188-0.166-0.362-0.288-0.624-0.288c-0.349,0-0.642,0.179-0.642,0.559c0,0.746,1.536,0.354,1.536,1.414
		c0,0.545-0.41,0.891-0.938,0.891c-0.406,0-0.738-0.166-0.947-0.524L150.904,56.815z"/>
	<path display="inline" d="M156.666,57.506h-0.218l0.999-3.134h0.219L156.666,57.506z"/>
	<path display="inline" d="M161.293,54.441l0.292-0.069l1.008,2.435l0.433-1.056l-0.546-1.31l0.279-0.069l0.428,1.013l0.437-1.013
		l0.253,0.069l-0.528,1.31l0.45,1.056l0.995-2.435l0.305,0.069l-1.309,3.064h-0.009l-0.594-1.414l-0.589,1.414h-0.009
		L161.293,54.441z"/>
	<path display="inline" d="M166.656,57.436v-2.994h1.619l0.052,0.271h-1.4v1.068h1.2v0.271h-1.2v1.113h1.475l-0.048,0.271H166.656z"
		/>
	<path display="inline" d="M170.886,54.441c0.511,0,0.847,0.24,0.847,0.786c0,0.318-0.14,0.532-0.393,0.659
		c0.327,0.161,0.48,0.375,0.48,0.737c0,0.52-0.306,0.812-0.943,0.812h-0.75v-2.994H170.886z M170.397,55.781h0.41
		c0.437,0,0.654-0.209,0.654-0.55c0-0.336-0.239-0.519-0.541-0.519h-0.523V55.781z M170.397,57.165h0.458
		c0.537,0,0.668-0.253,0.668-0.541c0-0.332-0.205-0.572-0.58-0.572h-0.546V57.165z"/>
	<path display="inline" d="M175.949,57.506h-0.218l0.999-3.134h0.219L175.949,57.506z"/>
	<path display="inline" d="M181.217,57.436l-0.271,0.035v-3.029h0.563c0.606,0,0.999,0.354,0.999,0.995s-0.393,0.995-1.086,0.995
		h-0.205V57.436z M181.217,56.161h0.248c0.484,0,0.746-0.279,0.746-0.725c0-0.444-0.262-0.724-0.658-0.724h-0.336V56.161z"/>
	<path display="inline" d="M184.212,57.471v-3.029h0.603c0.497,0,0.872,0.354,0.872,0.878c0,0.449-0.266,0.776-0.711,0.855
		l0.916,1.151l-0.274,0.145l-1.117-1.462h-0.018v1.427L184.212,57.471z M184.482,55.956h0.375c0.358,0,0.532-0.267,0.532-0.637
		c0-0.293-0.209-0.606-0.527-0.606h-0.38V55.956z"/>
	<path display="inline" d="M187.516,54.441l0.271-0.069v3.063l-0.271,0.035V54.441z"/>
	<path display="inline" d="M191.779,54.441l0.271-0.052v3.116h-0.009l-2.003-2.418h-0.009v2.348l-0.271,0.035v-3.099h0.009
		l2.003,2.404h0.009V54.441z"/>
	<path display="inline" d="M194.781,57.436l-0.271,0.035v-2.758h-0.83l0.062-0.271h1.828v0.271h-0.789V57.436z"/>
</g>
<g id="Word-Mark">
	<g>
		<path fill="#5F625F" d="M47.428,41.328h1.815c1.94,0,3.456,1.498,3.456,3.498c0,2.014-1.475,3.582-3.456,3.582h-1.815V41.328z
			 M48.067,47.768h1.042c1.682,0,2.889-1.248,2.889-2.941c0-1.627-1.032-2.857-2.733-2.857h-1.197V47.768z"/>
		<path fill="#5F625F" d="M56.89,48.408v-7.08h3.828l0.124,0.641h-3.312v2.527h2.838v0.642h-2.838v2.63h3.487l-0.114,0.641H56.89z"
			/>
		<path fill="#5F625F" d="M65.228,46.94c0.434,0.673,0.95,0.991,1.754,0.991c0.867,0,1.506-0.504,1.506-1.402
			c0-1.979-3.632-0.898-3.632-3.362c0-1.291,1.011-2.004,2.218-2.004c0.702,0,1.403,0.332,1.867,0.849l-0.392,0.472
			c-0.443-0.391-0.856-0.679-1.475-0.679c-0.825,0-1.517,0.424-1.517,1.32c0,1.765,3.632,0.836,3.632,3.343
			c0,1.289-0.971,2.104-2.218,2.104c-0.96,0-1.744-0.393-2.239-1.239L65.228,46.94z"/>
		<path fill="#5F625F" d="M73.462,41.328l0.64-0.165v7.245l-0.64,0.08V41.328z"/>
		<path fill="#5F625F" d="M84.42,47.613c-0.806,0.62-1.682,0.959-2.569,0.959c-1.95,0-3.559-1.568-3.559-3.757
			c0-1.897,1.424-3.652,3.704-3.652c0.762,0,1.754,0.393,2.3,0.93l-0.392,0.497c-0.525-0.394-1.227-0.785-1.897-0.785
			c-1.754,0-3.014,1.384-3.014,3.011c0,1.704,1.321,3.116,2.92,3.116c0.712,0,1.311-0.266,1.867-0.688v-2.036h-2.27l0.207-0.637
			h2.703V47.613z"/>
		<path fill="#5F625F" d="M93.511,41.328l0.639-0.122v7.366H94.13l-4.735-5.716h-0.021v5.552l-0.639,0.08v-7.325h0.021l4.735,5.687
			h0.021V41.328z"/>
		<path fill="#5F625F" d="M108.865,48.243c-0.402,0.187-0.887,0.329-1.33,0.329c-1.93,0-3.611-1.6-3.611-3.703
			c0-2.105,1.682-3.706,3.611-3.706c0.443,0,0.928,0.146,1.33,0.332l0.094,0.784c-0.289-0.226-0.867-0.475-1.477-0.475
			c-1.631,0-2.855,1.373-2.855,3.064c0,1.69,1.225,3.062,2.855,3.062c0.662,0,1.188-0.246,1.477-0.473L108.865,48.243z"/>
		<path fill="#5F625F" d="M120.246,44.869c0,2.053-1.713,3.703-3.744,3.703c-2.033,0-3.746-1.65-3.746-3.703
			s1.713-3.706,3.746-3.706C118.533,41.163,120.246,42.816,120.246,44.869z M113.457,44.869c0,1.669,1.395,3.062,3.045,3.062
			s3.045-1.394,3.045-3.062c0-1.67-1.395-3.064-3.045-3.064S113.457,43.199,113.457,44.869z"/>
		<path fill="#5F625F" d="M129.121,41.328l0.641-0.122v7.366h-0.021l-4.734-5.716h-0.021v5.552l-0.639,0.08v-7.325h0.021
			l4.734,5.687h0.02V41.328z"/>
		<path fill="#5F625F" d="M134.438,46.94c0.432,0.673,0.949,0.991,1.752,0.991c0.867,0,1.508-0.504,1.508-1.402
			c0-1.979-3.633-0.898-3.633-3.362c0-1.291,1.012-2.004,2.219-2.004c0.701,0,1.402,0.332,1.867,0.849l-0.393,0.472
			c-0.441-0.391-0.855-0.679-1.475-0.679c-0.824,0-1.516,0.424-1.516,1.32c0,1.765,3.631,0.836,3.631,3.343
			c0,1.289-0.971,2.104-2.217,2.104c-0.961,0-1.744-0.393-2.242-1.239L134.438,46.94z"/>
		<path fill="#5F625F" d="M147.479,46.167c0,1.508-0.959,2.405-2.475,2.405c-1.518,0-2.477-0.897-2.477-2.405v-4.839l0.639-0.165
			v5.024c0,0.753,0.588,1.744,1.838,1.744c1.156,0,1.836-0.917,1.836-1.939v-4.664l0.639-0.165V46.167z"/>
		<path fill="#5F625F" d="M152.01,48.408v-7.08l0.639-0.165v6.604h2.58l-0.195,0.641H152.01z"/>
		<path fill="#5F625F" d="M160.203,48.408l-0.639,0.08v-6.52h-1.961l0.143-0.641h4.324v0.641h-1.867V48.408z"/>
		<path fill="#5F625F" d="M166.65,45.62l-1.432,2.952l-0.682-0.164l3.602-7.245h0.021l3.598,7.245l-0.617,0.143l-1.455-2.931H166.65
			z M168.148,42.621l-1.186,2.361h2.361L168.148,42.621z"/>
		<path fill="#5F625F" d="M180.189,41.328l0.641-0.122v7.366h-0.02l-4.736-5.716h-0.02v5.552l-0.641,0.08v-7.325h0.02l4.736,5.687
			h0.02V41.328z"/>
		<path fill="#5F625F" d="M187.27,48.408l-0.641,0.08v-6.52h-1.959l0.143-0.641h4.324v0.641h-1.867V48.408z"/>
		<path fill="#5F625F" d="M193.184,46.94c0.432,0.673,0.949,0.991,1.754,0.991c0.867,0,1.506-0.504,1.506-1.402
			c0-1.979-3.633-0.898-3.633-3.362c0-1.291,1.012-2.004,2.219-2.004c0.701,0,1.402,0.332,1.867,0.849l-0.393,0.472
			c-0.443-0.391-0.855-0.679-1.475-0.679c-0.826,0-1.518,0.424-1.518,1.32c0,1.765,3.633,0.836,3.633,3.343
			c0,1.289-0.971,2.104-2.217,2.104c-0.961,0-1.744-0.393-2.24-1.239L193.184,46.94z"/>
	</g>
	<g>
		<path fill="#5F625F" d="M69.922,14.797c-1.794-3.05-5.385-4.89-8.839-4.89c-6.058,0-10.5,4.577-10.5,10.588
			c0,5.743,4.621,10.544,10.409,10.544c3.679,0,7.045-1.75,9.019-4.847h6.596c-2.109,6.552-8.705,11.173-15.569,11.173
			c-4.308,0-8.705-1.885-11.756-4.936c-3.14-3.185-4.846-7.494-4.846-11.979c0-8.974,7.27-16.602,16.376-16.602
			c3.724,0,7.314,1.257,9.917,3.948V4.567h5.025v10.23H69.922z"/>
		<path fill="#5F625F" d="M101.014,32.251h3.543l-1.883-4.801H91.412l-1.84,4.801h3.455v4.487H79.971v-5.115h3.409l9.332-21.806
			h-3.543V4.703h10.723l11.218,26.92h3.41v5.115h-13.506V32.251z M97.11,11.747h-0.045l-4.083,10.992h8.167L97.11,11.747z"/>
		<path fill="#5F625F" d="M122.01,9.817h-3.455V4.703h14.312c3.141,0,5.879,0.313,8.391,2.467c2.514,2.155,3.814,5.161,3.814,8.436
			c0,4.621-3.096,9.242-7.941,9.646l4.979,6.372h3.633v5.115h-7.49l-10.141-14.403v9.288h2.736v5.115h-12.293v-5.115h3.455V9.817z
			 M131.43,21.751c1.887,0,3.725-0.09,5.342-1.299c1.434-1.124,2.197-2.828,2.197-4.622c0-1.707-0.717-3.456-2.109-4.534
			c-1.346-1.121-2.824-1.121-4.531-1.121h-4.217v11.575H131.43z"/>
		<path fill="#5F625F" d="M162.477,31.623h3.457v5.115h-13.057v-5.115h3.498V9.817h-3.498V4.703h13.057v5.115h-3.457V31.623z"/>
		<path fill="#5F625F" d="M173.738,31.623h3.455V9.817h-3.455V4.703h14.225c2.377,0,4.711,0.223,6.639,1.661
			c2.066,1.569,3.008,3.813,3.008,6.371c0,2.914-1.482,5.562-4.174,6.82c3.543,1.435,5.564,4.441,5.564,8.256
			c0,2.557-1.078,5.115-3.006,6.775c-2.154,1.883-4.623,2.153-7.359,2.153h-14.896V31.623z M183.295,31.399h3.365
			c1.436,0,3.186,0.042,4.441-0.808c1.168-0.763,1.797-2.154,1.797-3.5c0-1.436-0.539-2.737-1.75-3.633
			c-1.303-0.944-2.875-0.944-4.443-0.944h-3.41V31.399z M183.342,17.489h3.096c1.479,0,2.871,0.091,4.127-0.806
			c0.988-0.719,1.436-1.84,1.436-3.052c0-1.3-0.539-2.467-1.66-3.186c-1.121-0.717-2.557-0.627-3.857-0.627h-3.141V17.489z"/>
	</g>
</g>
<g>
	<g id="Right">
		<path fill="#DB9130" d="M29.42,7.813c0,0,0.263-0.023,0.723-0.064c0.228-0.022,0.508-0.025,0.845,0
			c0.333,0.016,0.72,0.02,1.117,0.107c0.406,0.06,0.841,0.156,1.291,0.305c0.46,0.119,0.906,0.348,1.39,0.539
			c0.448,0.259,0.934,0.497,1.37,0.829c0.465,0.292,0.859,0.689,1.279,1.054c0.377,0.408,0.776,0.801,1.077,1.262
			c0.337,0.432,0.596,0.909,0.847,1.364c0.195,0.484,0.443,0.924,0.551,1.392c0.144,0.453,0.258,0.885,0.304,1.298
			c0.079,0.404,0.098,0.781,0.102,1.114c0.021,0.331,0.012,0.816-0.022,1.054C40.246,18.539,40.204,19,40.204,19h-0.274
			c0,0-0.059-0.453-0.16-0.899c-0.039-0.221-0.104-0.584-0.197-0.882c-0.088-0.298-0.165-0.684-0.31-1.034
			c-0.063-0.176-0.128-0.384-0.196-0.574c-0.083-0.183-0.169-0.385-0.258-0.579c-0.161-0.393-0.398-0.781-0.608-1.188
			c-0.271-0.374-0.484-0.803-0.8-1.17c-0.282-0.391-0.622-0.744-0.942-1.114c-0.359-0.333-0.709-0.675-1.096-0.966
			c-0.363-0.322-0.78-0.556-1.161-0.819c-0.408-0.213-0.785-0.471-1.185-0.621c-0.195-0.089-0.385-0.175-0.569-0.259
			c-0.191-0.066-0.376-0.131-0.553-0.192c-0.356-0.137-0.683-0.229-0.98-0.304c-0.292-0.09-0.563-0.147-0.794-0.175
			c-0.454-0.087-0.713-0.137-0.713-0.137L29.42,7.813z"/>
		<path fill="#DB9130" d="M29.18,3.873c0,0,0.147-0.006,0.404-0.016c0.128-0.001,0.284-0.002,0.463-0.004
			c0.179-0.001,0.379-0.018,0.605,0.053c0.227,0.055,0.473,0.114,0.733,0.176c0.275,0.043,0.504,0.2,0.773,0.31
			c0.254,0.136,0.542,0.242,0.77,0.448c0.244,0.183,0.481,0.384,0.723,0.579c0.201,0.236,0.403,0.472,0.591,0.713
			c0.209,0.226,0.326,0.509,0.458,0.767c0.114,0.267,0.285,0.497,0.322,0.767c0.061,0.259,0.124,0.5,0.167,0.725
			c0.112,0.444,0.019,0.892,0.034,1.149C35.216,9.803,35.198,10,35.198,10h-0.153c0,0-0.048-0.195-0.107-0.44
			c-0.08-0.241-0.104-0.625-0.277-1.011c-0.086-0.193-0.164-0.417-0.251-0.636c-0.066-0.228-0.231-0.433-0.354-0.657
			c-0.143-0.213-0.235-0.47-0.432-0.66c-0.177-0.202-0.346-0.417-0.516-0.631c-0.208-0.177-0.421-0.347-0.62-0.53
			c-0.187-0.2-0.437-0.304-0.653-0.443c-0.221-0.126-0.421-0.307-0.644-0.367c-0.219-0.086-0.425-0.167-0.616-0.242
			c-0.38-0.176-0.775-0.191-1.015-0.263c-0.25-0.061-0.394-0.096-0.394-0.096L29.18,3.873z"/>
		<g id="Stripes">
			<path fill="#DB9130" d="M27,20.907c0,0,0.363-0.151,0.717-0.197c0.354-0.038,0.939-0.005,1.545-0.011
				c1.212,0.009,2.869,0.022,4.485,0.035c1.617,0.036,3.126,0.052,4.339,0.1C39.298,20.878,40,20.907,40,20.907v0.162
				c0,0-0.682,0.029-1.894,0.073c-1.212,0.048-2.765,0.064-4.382,0.1c-1.616,0.013-3.201,0.025-4.413,0.035
				c-0.606-0.005-1.256,0.027-1.61-0.011C27.347,21.22,27,21.069,27,21.069V20.907z"/>
			<path fill="#DB9130" d="M29,18.966c0,0,0.108-0.151,0.37-0.197c0.262-0.038,0.615-0.005,1.064-0.011
				c0.897,0.009,2.084,0.022,3.282,0.035c1.197,0.036,2.142,0.052,3.04,0.1C37.654,18.938,38,18.966,38,18.966v0.162
				c0,0-0.352,0.029-1.25,0.073c-0.897,0.048-1.971,0.064-3.168,0.1c-1.197,0.013-2.333,0.025-3.23,0.035
				c-0.449-0.005-0.751,0.027-1.013-0.011C29.077,19.28,29,19.128,29,19.128V18.966z"/>
			<path fill="#DB9130" d="M28,17.371c0,0,0.2-0.114,0.396-0.148c0.196-0.028,0.521-0.004,0.858-0.008
				c0.673,0.007,1.414,0.017,2.312,0.026c1.795,0.032,3.434,0.13,3.434,0.13v0.121c0,0-1.617,0.098-3.412,0.13
				c-0.898,0.009-1.707,0.019-2.38,0.026c-0.337-0.004-0.661,0.021-0.857-0.008C28.155,17.606,28,17.493,28,17.492V17.371z"/>
		</g>
	</g>
	<g id="Left">
		<g id="Color">
			<path fill="#73637E" d="M15.208,7.54c0,0-0.193,0.037-0.531,0.102c-0.351,0.046-0.789,0.169-1.321,0.357
				c-0.269,0.081-0.548,0.199-0.836,0.336c-0.298,0.111-0.579,0.303-0.882,0.461c-0.284,0.196-0.594,0.37-0.865,0.609
				c-0.288,0.216-0.548,0.471-0.816,0.719c-0.239,0.275-0.492,0.537-0.702,0.828c-0.235,0.273-0.394,0.59-0.595,0.869
				c-0.157,0.304-0.333,0.588-0.453,0.881c-0.142,0.285-0.247,0.566-0.337,0.831c-0.188,0.525-0.313,0.803-0.378,1.13
				C7.416,14.995,7.373,15,7.373,15H7.168c0,0-0.023-0.015-0.065-0.362c-0.025-0.177-0.032-0.299-0.017-0.545
				c0.003-0.248,0.017-0.482,0.076-0.783c0.034-0.307,0.119-0.605,0.226-0.943c0.08-0.349,0.266-0.665,0.41-1.025
				c0.187-0.339,0.379-0.688,0.63-1.009C8.653,9.989,8.95,9.699,9.231,9.395c0.312-0.272,0.605-0.565,0.952-0.783
				c0.325-0.247,0.687-0.423,1.02-0.616c0.36-0.143,0.692-0.313,1.035-0.401c0.334-0.111,0.658-0.182,0.96-0.227
				c0.296-0.065,0.583-0.068,0.832-0.08c0.25-0.018,0.459-0.016,0.629,0c0.343,0.03,0.538,0.048,0.538,0.048L15.208,7.54z"/>
			<g>
				<path fill="#73637E" d="M7,13.673c0,0,0.358-0.114,0.555-0.148c0.196-0.028,0.6-0.004,0.936-0.008
					c0.673,0.007,1.796,0.017,2.694,0.026C12.98,13.575,15,13.673,15,13.673v0.121c0,0-1.958,0.098-3.754,0.13
					c-0.898,0.009-1.877,0.019-2.551,0.026c-0.336-0.004-0.904,0.021-1.1-0.008C7.399,13.908,7,13.794,7,13.794V13.673z"/>
				<path fill="#73637E" d="M8,12.719c0,0-0.146-0.085,0.001-0.111c0.147-0.022,0.243-0.001,0.496-0.002
					c0.505,0.008,1.157,0.019,1.831,0.03C11.675,12.641,13,12.719,13,12.719v0.091c0,0-1.383,0.078-2.73,0.083
					c-0.674,0.011-1.365,0.022-1.871,0.03c-0.252-0.001-0.242,0.02-0.389-0.002C7.863,12.895,8,12.81,8,12.81V12.719z"/>
				<path fill="#73637E" d="M8,11.882c0,0,0.049-0.058,0.16-0.083c0.11-0.016,0.261,0,0.451-0.001
					c0.378,0.006,0.874,0.014,1.379,0.022C11,11.823,12,11.882,12,11.882v0.068c0,0-1.004,0.059-2.014,0.062
					c-0.505,0.008-1.007,0.016-1.386,0.022c-0.189-0.001-0.332,0.015-0.442-0.001C8.047,12.008,8,11.95,8,11.95V11.882z"/>
			</g>
		</g>
		<path fill="#73637E" d="M24.213,1.125c0,0-0.237,0.045-0.651,0.125c-0.211,0.025-0.458,0.078-0.725,0.16
			c-0.271,0.069-0.569,0.153-0.895,0.278c-0.33,0.099-0.672,0.243-1.025,0.412c-0.365,0.137-0.709,0.372-1.082,0.566
			c-0.348,0.24-0.728,0.453-1.06,0.747c-0.353,0.265-0.672,0.578-1,0.881c-0.293,0.338-0.604,0.658-0.86,1.016
			c-0.288,0.335-0.483,0.724-0.73,1.065c-0.192,0.372-0.409,0.721-0.556,1.08c-0.174,0.349-0.302,0.694-0.414,1.018
			c-0.133,0.319-0.202,0.626-0.287,0.897c-0.09,0.271-0.149,0.65-0.179,0.854C14.673,10.626,14.607,11,14.607,11h-0.251
			c0,0-0.042-0.378-0.076-0.809c-0.026-0.217-0.035-0.548-0.021-0.85c-0.001-0.305,0.018-0.683,0.089-1.051
			c0.042-0.376,0.146-0.789,0.277-1.202c0.098-0.427,0.326-0.837,0.503-1.279c0.229-0.415,0.465-0.854,0.773-1.25
			c0.275-0.42,0.639-0.781,0.983-1.154c0.383-0.333,0.743-0.696,1.167-0.963c0.398-0.302,0.841-0.52,1.25-0.756
			c0.442-0.175,0.848-0.384,1.269-0.492c0.41-0.137,0.807-0.224,1.178-0.279c0.362-0.08,0.715-0.083,1.02-0.098
			c0.307-0.022,0.563-0.02,0.771,0c0.42,0.037,0.66,0.058,0.66,0.058L24.213,1.125z"/>
	</g>
	<path fill="#50C9ED" d="M34.655,42.8c-0.02,0.005-0.035,0.009-0.036,0.011c-9.139,1.826-9.427,5.345-13.367,5.345
		c-3.505,0-4.541-3.54-13.33-5.363C2.655,43.39,1,44.085,1,45.212c0,1.83,9.067,3.613,20.253,3.613
		c11.185,0,20.252-1.783,20.252-3.613C41.505,44.09,39.881,43.399,34.655,42.8z"/>
	<path fill="#74E5D1" d="M10.759,42.949c8.008,1.657,7.309,2.741,10.494,2.741c3.572,0,2.206-0.987,10.495-2.646
		C31.762,43.032,32.972,43,32.986,43H9.519C9.534,43,10.744,42.936,10.759,42.949z"/>
	<path fill="#FFB602" d="M37.405,31.18c0-8.921-7.232-16.321-16.152-16.321c-8.921,0-16.152,7.486-16.152,16.406
		C5.101,35.266,6.558,39,8.969,42h24.567C35.947,39,37.405,35.181,37.405,31.18z"/>
	<g id="White_1_">
		<g>
			<path fill="#FFFFFF" d="M20,20.91c0,0,0.324-0.196,0.664-0.255c0.17-0.039,0.441-0.018,0.678-0.021
				c0.236,0.002,0.536,0.004,0.827,0.007c1.164,0.014,2.732,0.016,4.284,0.044c1.552,0.046,3.273,0.068,4.438,0.13
				C32.054,20.872,33,20.91,33,20.91v0.21c0,0-0.938,0.038-2.102,0.095c-1.164,0.062-2.797,0.083-4.349,0.13
				c-1.552,0.028-3.144,0.031-4.308,0.044c-0.291,0.002-0.578,0.005-0.814,0.007c-0.237-0.003-0.583,0.019-0.753-0.021
				C20.334,21.316,20,21.12,20,21.12V20.91z"/>
			<path fill="#FFFFFF" d="M21,19.098c0,0-0.007-0.147,0.27-0.191c0.276-0.037,0.589-0.005,1.064-0.011
				c0.949,0.009,2.173,0.021,3.438,0.034c1.265,0.035,2.614,0.051,3.563,0.098C30.284,19.069,31,19.098,31,19.098v0.157
				c0,0-0.737,0.028-1.687,0.071c-0.948,0.046-2.266,0.063-3.531,0.098c-1.265,0.012-2.556,0.024-3.505,0.034
				c-0.475-0.005-0.718,0.026-0.995-0.011C21.006,19.402,21,19.255,21,19.255V19.098z"/>
			<path fill="#FFFFFF" d="M21,17.327c0,0,0.238-0.11,0.434-0.144c0.195-0.028,0.538-0.004,0.873-0.008
				c0.67,0.007,1.395,0.016,2.289,0.025C26.381,17.232,28,17.327,28,17.327v0.118c0,0-1.587,0.095-3.373,0.126
				c-0.894,0.009-1.687,0.019-2.357,0.025c-0.335-0.004-0.691,0.02-0.886-0.008C21.188,17.555,21,17.445,21,17.445V17.327z"/>
			<path id="White_3_" fill="#FFFFFF" d="M31.188,10.675c0,0-0.262,0.05-0.722,0.138c-0.234,0.027-0.509,0.086-0.804,0.177
				c-0.301,0.077-0.632,0.17-0.993,0.308c-0.18,0.062-0.367,0.127-0.56,0.195c-0.187,0.084-0.379,0.172-0.577,0.263
				c-0.405,0.151-0.787,0.412-1.2,0.627c-0.386,0.266-0.808,0.502-1.176,0.829c-0.391,0.294-0.746,0.641-1.11,0.977
				c-0.324,0.375-0.669,0.73-0.954,1.126c-0.32,0.372-0.536,0.803-0.81,1.182c-0.213,0.413-0.453,0.8-0.616,1.198
				c-0.089,0.197-0.176,0.388-0.26,0.573c-0.069,0.192-0.135,0.378-0.199,0.556c-0.147,0.354-0.225,0.695-0.314,0.996
				c-0.094,0.301-0.159,0.408-0.199,0.632C20.592,20.903,20.533,21,20.533,21h-0.278c0,0-0.043-0.105-0.088-0.583
				c-0.035-0.24-0.044-0.451-0.023-0.786c0.004-0.337,0.023-0.679,0.103-1.088c0.046-0.417,0.162-0.834,0.307-1.293
				c0.109-0.474,0.361-0.91,0.558-1.4c0.254-0.461,0.516-0.938,0.857-1.376c0.305-0.466,0.709-0.862,1.091-1.275
				c0.425-0.37,0.824-0.771,1.295-1.066c0.441-0.335,0.934-0.576,1.387-0.838c0.49-0.194,0.941-0.426,1.408-0.546
				c0.455-0.151,0.895-0.247,1.307-0.308c0.402-0.088,0.793-0.092,1.131-0.109c0.341-0.025,0.625-0.022,0.855,0.001
				c0.466,0.041,0.732,0.064,0.732,0.064L31.188,10.675z"/>
		</g>
		<g>
			<path fill="#FFFFFF" d="M14,27.708c0,0-0.218,0.196-0.435,0.255c-0.108,0.039-0.287,0.018-0.438,0.021
				c-0.151-0.002-0.345-0.004-0.53-0.007c-0.743-0.014-1.745-0.016-2.736-0.044c-0.991-0.046-1.931-0.068-2.673-0.13
				C6.445,27.757,6,27.707,6,27.708v-0.21c0,0,0.438-0.049,1.182-0.095c0.743-0.062,1.706-0.083,2.696-0.13
				c0.991-0.028,1.967-0.031,2.71-0.044c0.186-0.002,0.349-0.005,0.5-0.007c0.151,0.003,0.374-0.019,0.482,0.021
				C13.786,27.301,14,27.498,14,27.498V27.708z"/>
			<path fill="#FFFFFF" d="M13,25.843c0,0,0.096,0.147-0.091,0.191c-0.187,0.037-0.352,0.005-0.672,0.011
				c-0.64-0.01-1.443-0.012-2.297-0.034c-0.854-0.035-1.47-0.051-2.11-0.098C7.19,25.872,7,25.843,7,25.843v-0.157
				c0,0,0.215-0.028,0.855-0.071c0.64-0.046,1.388-0.063,2.241-0.098c0.854-0.021,1.654-0.023,2.294-0.034
				c0.32,0.005,0.358-0.026,0.545,0.011C13.122,25.539,13,25.686,13,25.686V25.843z"/>
			<path fill="#FFFFFF" d="M13,24.032c0,0-0.168,0.11-0.306,0.144c-0.138,0.028-0.38,0.004-0.617,0.008
				c-0.474-0.007-1.013-0.016-1.644-0.025C9.171,24.127,8,24.032,8,24.032v-0.118c0,0,1.148-0.095,2.411-0.126
				c0.631-0.009,1.205-0.019,1.679-0.025c0.237,0.004,0.495-0.02,0.633,0.008C12.86,23.804,13,23.914,13,23.914V24.032z"/>
			<path fill="#FFFFFF" d="M2.325,16.348c0,0,0.282-0.025,0.776-0.07c0.244-0.025,0.546-0.038,0.907-0.007
				c0.358,0.02,0.772,0.03,1.198,0.124c0.437,0.064,0.903,0.167,1.385,0.327c0.494,0.127,0.972,0.373,1.492,0.578
				c0.48,0.278,1.002,0.533,1.47,0.889c0.5,0.314,0.923,0.739,1.373,1.131c0.405,0.438,0.833,0.86,1.156,1.354
				c0.362,0.464,0.64,0.976,0.909,1.464c0.208,0.52,0.476,0.992,0.591,1.494c0.154,0.486,0.276,0.95,0.326,1.393
				c0.084,0.433,0.104,0.838,0.109,1.195c0.023,0.355,0.013,0.699-0.024,0.954C13.945,27.682,13.9,28,13.9,28h-0.295
				c0,0-0.062-0.309-0.172-0.788c-0.042-0.237-0.111-0.54-0.211-0.858c-0.095-0.32-0.177-0.69-0.333-1.065
				c-0.067-0.189-0.138-0.39-0.21-0.594c-0.089-0.196-0.181-0.401-0.276-0.61c-0.172-0.421-0.427-0.833-0.653-1.271
				c-0.291-0.402-0.52-0.859-0.859-1.253c-0.302-0.42-0.667-0.797-1.011-1.194c-0.385-0.357-0.762-0.725-1.176-1.036
				c-0.39-0.346-0.837-0.596-1.247-0.878c-0.438-0.229-0.842-0.504-1.272-0.665C5.975,17.693,5.771,17.6,5.574,17.51
				c-0.206-0.071-0.404-0.14-0.594-0.206c-0.382-0.147-0.734-0.239-1.053-0.319c-0.313-0.092-0.603-0.164-0.851-0.194
				c-0.487-0.094-0.765-0.148-0.765-0.148L2.325,16.348z"/>
		</g>
	</g>
</g>
</svg>
